# This file uses centimeters as units for non-parametric coordinates.

mtllib divider_2.mtl
g default
v -0.234291 -0.065844 -0.189405
v -0.230110 -0.067115 0.012613
v -0.194747 -0.065844 0.193722
v -0.239669 0.044480 -0.216421
v -0.244738 0.044480 -0.000819
v -0.214863 0.044480 0.213429
v -0.233125 0.066167 -0.190091
v -0.226176 0.067297 0.010299
v -0.193582 0.066167 0.193036
v -0.175408 0.067297 -0.178137
v -0.077871 0.068749 0.087295
v -0.009716 0.067297 0.228172
v -0.012143 0.066167 0.007077
v 0.162274 0.067297 0.160137
v 0.184018 0.066167 0.229346
v -0.014738 0.044480 0.014353
v 0.199204 0.044480 0.170424
v 0.211433 0.044480 0.237385
v -0.013309 -0.065844 0.007763
v 0.158340 -0.067115 0.162451
v 0.182852 -0.065844 0.230032
v -0.179343 -0.067115 -0.175822
v -0.101475 -0.068749 0.101183
v -0.013650 -0.067115 0.230486
v -0.000819 0.044480 0.244738
v -0.190182 0.044480 -0.219615
v -0.239669 -0.043210 -0.216421
v -0.190182 -0.043210 -0.219615
v -0.014738 -0.043210 0.014353
v 0.199204 -0.043210 0.170424
v 0.211433 -0.043210 0.237385
v -0.000819 -0.043210 0.244738
v -0.214863 -0.043210 0.213429
v -0.244738 -0.043210 -0.000819
v -0.014738 -0.062213 0.014353
v 0.236346 -0.043210 0.213278
v 0.211433 -0.062213 0.237385
v 0.198296 -0.067115 0.210932
v 0.035746 -0.068749 0.138534
v -0.146824 -0.068749 -0.044446
v -0.095671 -0.067115 -0.078267
v 0.112198 -0.067115 0.234834
v -0.052143 -0.068749 0.187731
v -0.186225 -0.068749 0.052912
v -0.221948 -0.067115 -0.210991
v -0.131542 -0.067115 0.222753
v 0.121550 -0.043210 0.245148
v -0.000819 -0.062213 0.244738
v -0.123188 -0.043210 0.244328
v 0.121550 0.044480 0.245148
v -0.000819 0.062939 0.244738
v -0.123188 0.044480 0.244328
v -0.190182 -0.062213 -0.219615
v -0.116015 -0.043210 -0.112681
v -0.226510 -0.043210 -0.251379
v -0.116015 0.044480 -0.112681
v -0.190182 0.062939 -0.219615
v -0.226510 0.044480 -0.251379
v -0.239669 0.000726 -0.216421
v -0.190182 0.000726 -0.219615
v -0.014738 0.000726 0.014353
v 0.199204 0.000726 0.170424
v 0.211433 0.000726 0.237385
v -0.000819 0.000726 0.244738
v -0.214863 0.000726 0.213429
v -0.244738 0.000726 -0.000819
v -0.235312 -0.067115 -0.114848
v -0.244738 -0.062213 -0.000819
v -0.244328 -0.043210 -0.123188
v -0.239669 -0.062213 -0.216421
v -0.223011 -0.067115 0.130669
v -0.214863 -0.062213 0.213429
v -0.245148 -0.043210 0.121550
v -0.244328 0.044480 -0.123188
v -0.244738 0.062939 -0.000819
v -0.232689 0.067297 -0.116391
v -0.239669 0.062939 -0.216421
v -0.245148 0.044480 0.121550
v -0.214863 0.062939 0.213429
v -0.220389 0.067297 0.129126
v -0.170488 0.068749 0.043653
v -0.131088 0.068749 -0.053704
v -0.219326 0.067297 -0.212534
v -0.128919 0.067297 0.221210
v -0.036407 0.068749 0.178472
v 0.051483 0.068749 0.129275
v 0.071155 0.067297 0.084515
v -0.093048 0.067297 -0.079810
v 0.114821 0.067297 0.233290
v 0.200919 0.067297 0.209388
v 0.199204 0.062939 0.170424
v 0.102922 0.044480 0.106419
v -0.014738 0.062939 0.014353
v 0.211433 0.062939 0.237385
v 0.236346 0.044480 0.213278
v 0.102922 -0.043210 0.106419
v 0.199204 -0.062213 0.170424
v 0.068532 -0.067115 0.086058
v -0.244328 -0.062213 -0.123188
v -0.245148 -0.062213 0.121550
v -0.244328 0.062939 -0.123188
v -0.245148 0.062939 0.121550
v -0.197772 0.068749 -0.096000
v -0.146112 0.068749 0.151854
v -0.024147 0.068749 0.018804
v 0.094636 0.068749 0.197718
v 0.102922 0.062939 0.106419
v 0.236346 0.062939 0.213278
v 0.102922 -0.062213 0.106419
v 0.236346 -0.062213 0.213278
v -0.034638 -0.068749 0.024976
v 0.084145 -0.068749 0.203891
v -0.208263 -0.068749 -0.089827
v -0.156602 -0.068749 0.158026
v 0.121550 -0.062213 0.245148
v -0.123188 -0.062213 0.244328
v 0.121550 0.062939 0.245148
v -0.123188 0.062939 0.244328
v -0.116015 -0.062213 -0.112681
v -0.226510 -0.062213 -0.251379
v -0.116015 0.062939 -0.112681
v -0.226510 0.062939 -0.251379
v -0.226510 0.000726 -0.251379
v -0.116015 0.000726 -0.112681
v 0.102922 0.000726 0.106419
v 0.236346 0.000726 0.213278
v 0.121550 0.000726 0.245148
v -0.123188 0.000726 0.244328
v -0.245148 0.000726 0.121550
v -0.244328 0.000726 -0.123188
vt 0.375000 0.000000
vt 0.375000 1.000000
vt 0.500000 0.000000
vt 0.500000 1.000000
vt 0.625000 0.000000
vt 0.625000 1.000000
vt 0.375000 0.126623
vt 0.500000 0.126623
vt 0.625000 0.126623
vt 0.375000 0.250000
vt 0.500000 0.250000
vt 0.625000 0.250000
vt 0.375000 0.375000
vt 0.250000 0.250000
vt 0.500000 0.375000
vt 0.625000 0.375000
vt 0.750000 0.250000
vt 0.375000 0.500000
vt 0.125000 0.250000
vt 0.500000 0.500000
vt 0.625000 0.500000
vt 0.875000 0.250000
vt 0.375000 0.625000
vt 0.125000 0.125000
vt 0.500000 0.623377
vt 0.625000 0.625000
vt 0.875000 0.125000
vt 0.375000 0.750000
vt 0.125000 0.000000
vt 0.500000 0.764002
vt 0.625000 0.750000
vt 0.875000 0.000000
vt 0.375000 0.875000
vt 0.250000 0.000000
vt 0.500000 0.875000
vt 0.625000 0.875000
vt 0.750000 0.000000
vt 0.750000 0.126623
vt 0.250000 0.126623
vt 0.375000 0.025361
vt 0.250000 0.025361
vt 0.375000 0.737018
vt 0.125000 0.012982
vt 0.500000 0.724639
vt 0.625000 0.737018
vt 0.875000 0.012982
vt 0.750000 0.025361
vt 0.625000 0.025361
vt 0.500000 0.025361
vt 0.437500 0.006491
vt 0.562500 0.006491
vt 0.437500 0.187500
vt 0.562500 0.187500
vt 0.437500 0.312500
vt 0.562500 0.312500
vt 0.437500 0.437500
vt 0.562500 0.437500
vt 0.437500 0.562500
vt 0.562500 0.562500
vt 0.437500 0.743509
vt 0.562500 0.743509
vt 0.437500 0.812500
vt 0.562500 0.812500
vt 0.437500 0.937500
vt 0.562500 0.937500
vt 0.812500 0.006491
vt 0.687500 0.006491
vt 0.812500 0.187500
vt 0.687500 0.187500
vt 0.187500 0.006491
vt 0.312500 0.006491
vt 0.187500 0.187500
vt 0.312500 0.187500
vt 0.312500 0.068991
vt 0.187500 0.068991
vt 0.437500 0.681009
vt 0.562500 0.681009
vt 0.812500 0.068991
vt 0.687500 0.068991
vt 0.562500 0.068991
vt 0.437500 0.068991
vt 0.437500 0.000000
vt 0.437500 1.000000
vt 0.500000 0.006491
vt 0.437500 0.025361
vt 0.375000 0.006491
vt 0.562500 0.000000
vt 0.562500 1.000000
vt 0.625000 0.006491
vt 0.562500 0.025361
vt 0.437500 0.126623
vt 0.500000 0.187500
vt 0.437500 0.250000
vt 0.375000 0.187500
vt 0.562500 0.126623
vt 0.625000 0.187500
vt 0.562500 0.250000
vt 0.500000 0.312500
vt 0.437500 0.375000
vt 0.375000 0.312500
vt 0.312500 0.250000
vt 0.625000 0.312500
vt 0.687500 0.250000
vt 0.562500 0.375000
vt 0.500000 0.437500
vt 0.437500 0.500000
vt 0.375000 0.437500
vt 0.187500 0.250000
vt 0.625000 0.437500
vt 0.812500 0.250000
vt 0.562500 0.500000
vt 0.500000 0.562500
vt 0.437500 0.623377
vt 0.375000 0.562500
vt 0.125000 0.187500
vt 0.625000 0.562500
vt 0.875000 0.187500
vt 0.562500 0.623377
vt 0.437500 0.724639
vt 0.500000 0.743509
vt 0.437500 0.764002
vt 0.375000 0.743509
vt 0.125000 0.006491
vt 0.562500 0.724639
vt 0.625000 0.743509
vt 0.875000 0.006491
vt 0.562500 0.764002
vt 0.500000 0.812500
vt 0.437500 0.875000
vt 0.375000 0.812500
vt 0.187500 0.000000
vt 0.625000 0.812500
vt 0.812500 0.000000
vt 0.562500 0.875000
vt 0.500000 0.937500
vt 0.375000 0.937500
vt 0.312500 0.000000
vt 0.625000 0.937500
vt 0.687500 0.000000
vt 0.812500 0.025361
vt 0.750000 0.006491
vt 0.687500 0.025361
vt 0.812500 0.126623
vt 0.750000 0.187500
vt 0.687500 0.126623
vt 0.250000 0.006491
vt 0.187500 0.025361
vt 0.312500 0.025361
vt 0.187500 0.126623
vt 0.250000 0.187500
vt 0.312500 0.126623
vt 0.375000 0.068991
vt 0.250000 0.068991
vt 0.125000 0.068991
vt 0.375000 0.681009
vt 0.500000 0.681009
vt 0.625000 0.681009
vt 0.875000 0.068991
vt 0.750000 0.068991
vt 0.625000 0.068991
vt 0.500000 0.068991
vn -0.193786 -0.980853 -0.019356
vn -0.180159 -0.983636 -0.001912
vn -0.934654 -0.354979 -0.020308
vn -0.920422 -0.364639 -0.140933
vn -0.122389 -0.992465 0.005898
vn -0.866305 -0.499513 0.001626
vn -0.999994 0.000000 -0.003348
vn -0.999724 0.000000 -0.023505
vn -0.990477 0.000000 -0.137677
vn -0.092725 -0.995412 0.023585
vn -0.793894 -0.598439 0.107716
vn -0.080780 -0.993487 0.080365
vn -0.583174 -0.569832 0.578964
vn -0.709470 0.000000 0.704735
vn -0.990417 0.000000 0.138106
vn -0.990477 0.000000 -0.137677
vn -0.999724 0.000000 -0.023505
vn -0.892788 0.450098 -0.018481
vn -0.898602 0.416750 -0.137236
vn -0.999994 0.000000 -0.003348
vn -0.796745 0.604314 0.001471
vn -0.085493 0.996330 0.004300
vn -0.123777 0.992310 -0.000115
vn -0.144931 0.989340 -0.014192
vn -0.990417 0.000000 0.138106
vn -0.736412 0.669102 0.099996
vn -0.709470 0.000000 0.704735
vn -0.558745 0.616940 0.554247
vn -0.062923 0.996043 0.062761
vn -0.069852 0.997411 0.017084
vn -0.012009 0.999919 -0.004148
vn -0.000222 0.998291 -0.058436
vn -0.010973 0.999939 0.001438
vn 0.000000 1.000000 0.000000
vn 0.007196 0.999940 -0.008229
vn 0.075555 0.994983 -0.065584
vn -0.010971 0.999879 0.011031
vn -0.018861 0.997027 0.074704
vn -0.004453 0.995747 0.092023
vn -0.001537 0.999930 0.011766
vn 0.016901 0.999715 -0.016884
vn 0.096211 0.991551 -0.087004
vn 0.008320 0.999940 -0.007186
vn 0.061396 0.995646 -0.070146
vn 0.085091 0.991892 -0.094391
vn 0.318942 0.894324 -0.313786
vn 0.005333 0.999922 0.011325
vn 0.003777 0.992424 0.122804
vn 0.027060 0.991457 0.127594
vn 0.061440 0.998063 -0.009755
vn 0.573472 0.247075 -0.781079
vn 0.704651 -0.062188 -0.706824
vn 0.534513 0.552659 -0.639425
vn 0.625124 -0.000000 -0.780525
vn 0.589347 0.000000 -0.807880
vn 0.707368 0.000000 -0.706845
vn 0.741330 0.657242 -0.135879
vn 0.250698 0.486826 0.836750
vn 0.267499 0.000000 0.963558
vn 0.983729 -0.000000 -0.179660
vn 0.707368 -0.000000 -0.706845
vn 0.589347 -0.000000 -0.807880
vn 0.555361 -0.350543 -0.754118
vn 0.705722 -0.023145 -0.708111
vn 0.625124 -0.000000 -0.780525
vn 0.513946 -0.597740 -0.615278
vn 0.057797 -0.996147 -0.065960
vn 0.070809 -0.994506 -0.077091
vn 0.202212 -0.958923 -0.198940
vn 0.983729 0.000000 -0.179659
vn 0.719274 -0.681080 -0.137020
vn 0.267499 0.000000 0.963558
vn 0.254754 -0.470530 0.844809
vn 0.032329 -0.987942 0.151410
vn 0.063422 -0.997921 -0.011426
vn 0.015203 -0.999769 -0.015188
vn 0.078435 -0.994302 -0.072193
vn 0.007980 -0.999946 -0.006643
vn -0.000000 -1.000000 -0.000000
vn 0.006864 -0.999943 -0.008152
vn 0.072076 -0.995426 -0.062699
vn 0.005848 -0.999894 0.013332
vn 0.005963 -0.987271 0.158936
vn -0.005632 -0.992635 0.121009
vn -0.002114 -0.999893 0.014491
vn -0.015236 -0.999872 -0.004867
vn 0.000792 -0.998020 -0.062900
vn -0.014375 -0.999894 0.002144
vn -0.014882 -0.999779 0.014872
vn -0.024678 -0.995188 0.094829
vn 0.032230 -0.397324 0.917112
vn -0.006562 -0.502720 0.864424
vn 0.034621 0.000000 0.999400
vn -0.003348 0.000000 0.999994
vn -0.114193 -0.589595 0.799586
vn -0.144735 0.000000 0.989470
vn -0.003348 0.000000 0.999994
vn 0.034621 0.000000 0.999400
vn 0.030152 0.457796 0.888546
vn -0.006179 0.577466 0.816391
vn -0.144735 0.000000 0.989470
vn -0.108970 0.643523 0.757630
vn 0.744718 -0.358389 -0.562985
vn 0.639223 -0.558346 -0.528813
vn 0.782143 -0.000000 -0.623099
vn 0.800053 0.000000 -0.599929
vn -0.020912 -0.670194 -0.741891
vn -0.064411 0.000000 -0.997923
vn 0.800053 0.000000 -0.599929
vn 0.773615 0.247973 -0.583120
vn 0.782143 0.000000 -0.623099
vn 0.659569 0.516101 -0.546451
vn -0.064411 0.000000 -0.997923
vn -0.031838 0.645800 -0.762842
vn -0.064411 0.000000 -0.997923
vn 0.782143 -0.000000 -0.623099
vn -0.990477 0.000000 -0.137677
vn 0.800053 -0.000000 -0.599929
vn 0.707368 0.000000 -0.706845
vn 0.589347 0.000000 -0.807880
vn 0.625124 0.000000 -0.780525
vn 0.983729 0.000000 -0.179659
vn 0.267499 0.000000 0.963558
vn 0.034621 0.000000 0.999400
vn -0.003348 0.000000 0.999994
vn -0.144735 0.000000 0.989470
vn -0.709470 0.000000 0.704735
vn -0.990417 0.000000 0.138106
vn -0.999994 0.000000 -0.003348
vn -0.999724 0.000000 -0.023505
s 1
g pCube2
usemtl initialShadingGroup
f 1/1/1 67/82/2 99/50/3 70/86/4
f 67/82/2 2/3/5 68/84/6 99/50/3
f 99/50/3 68/84/6 34/49/7 69/85/8
f 70/86/4 99/50/3 69/85/8 27/40/9
f 2/3/5 71/87/10 100/51/11 68/84/6
f 71/87/10 3/5/12 72/89/13 100/51/11
f 100/51/11 72/89/13 33/48/14 73/90/15
f 68/84/6 100/51/11 73/90/15 34/49/7
f 4/7/16 74/91/17 101/52/18 77/94/19
f 74/91/17 5/8/20 75/92/21 101/52/18
f 101/52/18 75/92/21 8/11/22 76/93/23
f 77/94/19 101/52/18 76/93/23 7/10/24
f 5/8/20 78/95/25 102/53/26 75/92/21
f 78/95/25 6/9/27 79/96/28 102/53/26
f 102/53/26 79/96/28 9/12/29 80/97/30
f 75/92/21 102/53/26 80/97/30 8/11/22
f 7/10/24 76/93/23 103/54/31 83/100/32
f 76/93/23 8/11/22 81/98/33 103/54/31
f 103/54/31 81/98/33 11/15/34 82/99/35
f 83/100/32 103/54/31 82/99/35 10/13/36
f 8/11/22 80/97/30 104/55/37 81/98/33
f 80/97/30 9/12/29 84/102/38 104/55/37
f 104/55/37 84/102/38 12/16/39 85/104/40
f 81/98/33 104/55/37 85/104/40 11/15/34
f 10/13/36 82/99/35 105/56/41 88/107/42
f 82/99/35 11/15/34 86/105/43 105/56/41
f 105/56/41 86/105/43 14/20/44 87/106/45
f 88/107/42 105/56/41 87/106/45 13/18/46
f 11/15/34 85/104/40 106/57/47 86/105/43
f 85/104/40 12/16/39 89/109/48 106/57/47
f 106/57/47 89/109/48 15/21/49 90/111/50
f 86/105/43 106/57/47 90/111/50 14/20/44
f 13/18/46 87/106/45 107/58/51 93/114/52
f 87/106/45 14/20/44 91/112/53 107/58/51
f 107/58/51 91/112/53 17/25/54 92/113/55
f 93/114/52 107/58/51 92/113/55 16/23/56
f 14/20/44 90/111/50 108/59/57 91/112/53
f 90/111/50 15/21/49 94/116/58 108/59/57
f 108/59/57 94/116/58 18/26/59 95/118/60
f 91/112/53 108/59/57 95/118/60 17/25/54
f 29/42/61 96/119/62 109/60/63 35/122/64
f 96/119/62 30/44/65 97/120/66 109/60/63
f 109/60/63 97/120/66 20/30/67 98/121/68
f 35/122/64 109/60/63 98/121/68 19/28/69
f 30/44/65 36/124/70 110/61/71 97/120/66
f 36/124/70 31/45/72 37/125/73 110/61/71
f 110/61/71 37/125/73 21/31/74 38/127/75
f 97/120/66 110/61/71 38/127/75 20/30/67
f 19/28/69 98/121/68 111/62/76 41/130/77
f 98/121/68 20/30/67 39/128/78 111/62/76
f 111/62/76 39/128/78 23/35/79 40/129/80
f 41/130/77 111/62/76 40/129/80 22/33/81
f 20/30/67 38/127/75 112/63/82 39/128/78
f 38/127/75 21/31/74 42/132/83 112/63/82
f 112/63/82 42/132/83 24/36/84 43/134/85
f 39/128/78 112/63/82 43/134/85 23/35/79
f 22/33/81 40/129/80 113/64/86 45/136/87
f 40/129/80 23/35/79 44/135/88 113/64/86
f 113/64/86 44/135/88 2/4/5 67/83/2
f 45/136/87 113/64/86 67/83/2 1/2/1
f 23/35/79 43/134/85 114/65/89 44/135/88
f 43/134/85 24/36/84 46/138/90 114/65/89
f 114/65/89 46/138/90 3/6/12 71/88/10
f 44/135/88 114/65/89 71/88/10 2/4/5
f 24/37/84 42/133/83 115/66/91 48/141/92
f 42/133/83 21/32/74 37/126/73 115/66/91
f 115/66/91 37/126/73 31/46/72 47/140/93
f 48/141/92 115/66/91 47/140/93 32/47/94
f 3/5/12 46/139/90 116/67/95 72/89/13
f 46/139/90 24/37/84 48/141/92 116/67/95
f 116/67/95 48/141/92 32/47/94 49/142/96
f 72/89/13 116/67/95 49/142/96 33/48/14
f 25/38/97 50/143/98 117/68/99 51/144/100
f 50/143/98 18/27/59 94/117/58 117/68/99
f 117/68/99 94/117/58 15/22/49 89/110/48
f 51/144/100 117/68/99 89/110/48 12/17/39
f 6/9/27 52/145/101 118/69/102 79/96/28
f 52/145/101 25/38/97 51/144/100 118/69/102
f 118/69/102 51/144/100 12/17/39 84/103/38
f 79/96/28 118/69/102 84/103/38 9/12/29
f 19/29/69 41/131/77 119/70/103 35/123/64
f 41/131/77 22/34/81 53/146/104 119/70/103
f 119/70/103 53/146/104 28/41/105 54/147/106
f 35/123/64 119/70/103 54/147/106 29/43/61
f 22/34/81 45/137/87 120/71/107 53/146/104
f 45/137/87 1/1/1 70/86/4 120/71/107
f 120/71/107 70/86/4 27/40/9 55/148/108
f 53/146/104 120/71/107 55/148/108 28/41/105
f 16/24/56 56/149/109 121/72/110 93/115/52
f 56/149/109 26/39/111 57/150/112 121/72/110
f 121/72/110 57/150/112 10/14/36 88/108/42
f 93/115/52 121/72/110 88/108/42 13/19/46
f 26/39/111 58/151/113 122/73/114 57/150/112
f 58/151/113 4/7/16 77/94/19 122/73/114
f 122/73/114 77/94/19 7/10/24 83/101/32
f 57/150/112 122/73/114 83/101/32 10/14/36
f 28/41/105 55/148/108 123/74/115 60/153/116
f 55/148/108 27/40/9 59/152/117 123/74/115
f 123/74/115 59/152/117 4/7/16 58/151/113
f 60/153/116 123/74/115 58/151/113 26/39/111
f 29/43/61 54/147/106 124/75/118 61/154/119
f 54/147/106 28/41/105 60/153/116 124/75/118
f 124/75/118 60/153/116 26/39/111 56/149/109
f 61/154/119 124/75/118 56/149/109 16/24/56
f 16/23/56 92/113/55 125/76/120 61/155/119
f 92/113/55 17/25/54 62/156/121 125/76/120
f 125/76/120 62/156/121 30/44/65 96/119/62
f 61/155/119 125/76/120 96/119/62 29/42/61
f 17/25/54 95/118/60 126/77/122 62/156/121
f 95/118/60 18/26/59 63/157/123 126/77/122
f 126/77/122 63/157/123 31/45/72 36/124/70
f 62/156/121 126/77/122 36/124/70 30/44/65
f 32/47/94 47/140/93 127/78/124 64/159/125
f 47/140/93 31/46/72 63/158/123 127/78/124
f 127/78/124 63/158/123 18/27/59 50/143/98
f 64/159/125 127/78/124 50/143/98 25/38/97
f 33/48/14 49/142/96 128/79/126 65/160/127
f 49/142/96 32/47/94 64/159/125 128/79/126
f 128/79/126 64/159/125 25/38/97 52/145/101
f 65/160/127 128/79/126 52/145/101 6/9/27
f 34/49/7 73/90/15 129/80/128 66/161/129
f 73/90/15 33/48/14 65/160/127 129/80/128
f 129/80/128 65/160/127 6/9/27 78/95/25
f 66/161/129 129/80/128 78/95/25 5/8/20
f 27/40/9 69/85/8 130/81/130 59/152/117
f 69/85/8 34/49/7 66/161/129 130/81/130
f 130/81/130 66/161/129 5/8/20 74/91/17
f 59/152/117 130/81/130 74/91/17 4/7/16
